<svg width="233" height="37" viewBox="0 0 233 37" fill="none" xmlns="http://www.w3.org/2000/svg">
<path d="M20.7276 18.72C22.6796 19.136 24.2476 20.112 25.4316 21.648C26.6156 23.152 27.2076 24.88 27.2076 26.832C27.2076 29.648 26.2156 31.888 24.2316 33.552C22.2796 35.184 19.5436 36 16.0236 36H0.327563V2.304H15.4956C18.9196 2.304 21.5916 3.088 23.5116 4.656C25.4636 6.224 26.4396 8.352 26.4396 11.04C26.4396 13.024 25.9116 14.672 24.8556 15.984C23.8316 17.296 22.4556 18.208 20.7276 18.72ZM8.53556 15.936H13.9116C15.2556 15.936 16.2796 15.648 16.9836 15.072C17.7196 14.464 18.0876 13.584 18.0876 12.432C18.0876 11.28 17.7196 10.4 16.9836 9.792C16.2796 9.184 15.2556 8.88 13.9116 8.88H8.53556V15.936ZM14.5836 29.376C15.9596 29.376 17.0156 29.072 17.7516 28.464C18.5196 27.824 18.9036 26.912 18.9036 25.728C18.9036 24.544 18.5036 23.616 17.7036 22.944C16.9356 22.272 15.8636 21.936 14.4876 21.936H8.53556V29.376H14.5836ZM52.9442 30.048H40.3682L38.3522 36H29.7602L41.9522 2.304H51.4562L63.6482 36H54.9602L52.9442 30.048ZM50.8322 23.712L46.6562 11.376L42.5282 23.712H50.8322ZM91.5988 2.304V8.88H82.6708V36H74.4628V8.88H65.5348V2.304H91.5988Z" fill="#191717"/>
<path d="M108.798 33.744C110.142 33.744 111.382 33.536 112.518 33.12C113.67 32.704 114.71 32.168 115.638 31.512L117.198 33.528C116.094 34.456 114.774 35.184 113.238 35.712C111.702 36.224 110.262 36.48 108.918 36.48C105.254 36.48 102.43 35.304 100.446 32.952C98.4622 30.6 97.4702 27.448 97.4702 23.496C97.4702 21 97.9102 18.76 98.7902 16.776C99.6862 14.792 100.982 13.224 102.678 12.072C104.39 10.92 106.478 10.344 108.942 10.344C112.03 10.344 114.758 11.296 117.126 13.2L115.542 15.336C113.254 13.768 111.006 12.984 108.798 12.984C106.478 12.984 104.558 13.864 103.038 15.624C101.534 17.384 100.782 20.008 100.782 23.496C100.782 27.016 101.534 29.608 103.038 31.272C104.558 32.92 106.478 33.744 108.798 33.744ZM135.995 10.344C139.451 10.344 142.035 11.528 143.747 13.896C145.475 16.248 146.339 19.416 146.339 23.4C146.339 25.896 145.947 28.128 145.163 30.096C144.379 32.064 143.211 33.624 141.659 34.776C140.123 35.912 138.211 36.48 135.923 36.48C133.619 36.48 131.691 35.936 130.139 34.848C128.603 33.744 127.443 32.216 126.659 30.264C125.891 28.296 125.507 26.024 125.507 23.448C125.507 20.872 125.899 18.6 126.683 16.632C127.467 14.664 128.635 13.128 130.187 12.024C131.755 10.904 133.691 10.344 135.995 10.344ZM135.995 12.96C133.627 12.96 131.827 13.816 130.595 15.528C129.379 17.24 128.771 19.88 128.771 23.448C128.771 30.376 131.155 33.84 135.923 33.84C140.691 33.84 143.075 30.36 143.075 23.4C143.075 19.864 142.475 17.24 141.275 15.528C140.091 13.816 138.331 12.96 135.995 12.96ZM170.873 0.191998L173.849 0.599999V36H171.257L170.873 32.52C169.865 33.96 168.737 34.984 167.489 35.592C166.257 36.184 164.985 36.48 163.673 36.48C161.449 36.48 159.617 35.936 158.177 34.848C156.753 33.744 155.697 32.216 155.009 30.264C154.321 28.296 153.977 26.032 153.977 23.472C153.977 20.96 154.361 18.72 155.129 16.752C155.913 14.768 157.033 13.208 158.489 12.072C159.961 10.92 161.737 10.344 163.817 10.344C165.353 10.344 166.697 10.616 167.849 11.16C169.001 11.688 170.009 12.472 170.873 13.512V0.191998ZM164.561 12.912C162.225 12.912 160.433 13.8 159.185 15.576C157.953 17.336 157.337 19.96 157.337 23.448C157.337 26.76 157.897 29.328 159.017 31.152C160.153 32.976 161.833 33.888 164.057 33.888C165.657 33.888 167.009 33.44 168.113 32.544C169.233 31.648 170.153 30.664 170.873 29.592V16.488C170.137 15.352 169.217 14.472 168.113 13.848C167.025 13.224 165.841 12.912 164.561 12.912ZM186.502 24.6C186.55 26.712 186.926 28.448 187.63 29.808C188.35 31.152 189.294 32.144 190.462 32.784C191.63 33.424 192.902 33.744 194.278 33.744C195.606 33.744 196.782 33.552 197.806 33.168C198.846 32.784 199.934 32.2 201.07 31.416L202.63 33.648C201.462 34.544 200.142 35.24 198.67 35.736C197.214 36.232 195.79 36.48 194.398 36.48C192.078 36.48 190.086 35.936 188.422 34.848C186.774 33.76 185.51 32.24 184.63 30.288C183.75 28.32 183.31 26.032 183.31 23.424C183.31 20.864 183.758 18.6 184.654 16.632C185.55 14.664 186.79 13.128 188.374 12.024C189.974 10.904 191.83 10.344 193.942 10.344C196.998 10.344 199.39 11.44 201.118 13.632C202.846 15.808 203.71 18.776 203.71 22.536C203.71 22.968 203.702 23.36 203.686 23.712C203.67 24.048 203.654 24.344 203.638 24.6H186.502ZM194.014 13.128C191.982 13.128 190.27 13.848 188.878 15.288C187.502 16.728 186.726 18.936 186.55 21.912H200.878C200.814 18.952 200.15 16.752 198.886 15.312C197.622 13.856 195.998 13.128 194.014 13.128ZM213.363 36V33.504H217.467V13.32H213.363V10.8H219.747L220.299 16.848C221.291 14.8 222.475 13.2 223.851 12.048C225.243 10.88 227.115 10.296 229.467 10.296C230.123 10.296 230.707 10.344 231.219 10.44C231.747 10.536 232.299 10.656 232.875 10.8L232.539 18.72H229.659V13.8L229.707 13.176C229.515 13.16 229.315 13.152 229.107 13.152C227.075 13.152 225.347 13.848 223.923 15.24C222.499 16.616 221.339 18.8 220.443 21.792V33.504H225.627V36H213.363Z" fill="#E1E1E6"/>
</svg>
