<svg width="32" height="32" viewBox="0 0 32 32" fill="none" xmlns="http://www.w3.org/2000/svg">
<g clip-path="url(#clip0)">
<path d="M10.3789 24.8375C10.3789 24.9625 10.235 25.0625 10.0536 25.0625C9.84712 25.0813 9.70323 24.9813 9.70323 24.8375C9.70323 24.7125 9.84712 24.6125 10.0285 24.6125C10.2162 24.5938 10.3789 24.6938 10.3789 24.8375ZM8.43324 24.5563C8.38944 24.6813 8.51457 24.825 8.70225 24.8625C8.86491 24.925 9.05259 24.8625 9.09013 24.7375C9.12766 24.6125 9.0088 24.4688 8.82111 24.4125C8.65846 24.3688 8.47703 24.4313 8.43324 24.5563ZM11.1984 24.45C11.017 24.4938 10.8919 24.6125 10.9107 24.7563C10.9294 24.8813 11.0921 24.9625 11.2798 24.9188C11.4612 24.875 11.5863 24.7563 11.5675 24.6313C11.5488 24.5125 11.3799 24.4313 11.1984 24.45ZM15.315 0.5C6.63773 0.5 0 7.08125 0 15.75C0 22.6813 4.36676 28.6125 10.6041 30.7C11.4049 30.8438 11.6864 30.35 11.6864 29.9438C11.6864 29.5563 11.6676 27.4188 11.6676 26.1063C11.6676 26.1063 7.28837 27.0438 6.36872 24.2438C6.36872 24.2438 5.65552 22.425 4.62952 21.9563C4.62952 21.9563 3.19687 20.975 4.72962 20.9938C4.72962 20.9938 6.28739 21.1188 7.14448 22.6063C8.51456 25.0188 10.8106 24.325 11.7052 23.9125C11.8491 22.9125 12.2557 22.2188 12.7062 21.8063C9.20899 21.4188 5.68055 20.9125 5.68055 14.9C5.68055 13.1813 6.15601 12.3188 7.15699 11.2188C6.99433 10.8125 6.46256 9.1375 7.31965 6.975C8.62718 6.56875 11.6364 8.6625 11.6364 8.6625C12.8876 8.3125 14.2326 8.13125 15.5652 8.13125C16.8978 8.13125 18.2428 8.3125 19.494 8.6625C19.494 8.6625 22.5032 6.5625 23.8108 6.975C24.6678 9.14375 24.1361 10.8125 23.9734 11.2188C24.9744 12.325 25.5875 13.1875 25.5875 14.9C25.5875 20.9313 21.9026 21.4125 18.4055 21.8063C18.981 22.3 19.469 23.2375 19.469 24.7063C19.469 26.8125 19.4502 29.4188 19.4502 29.9313C19.4502 30.3375 19.738 30.8313 20.5326 30.6875C26.7887 28.6125 31.0303 22.6813 31.0303 15.75C31.0303 7.08125 23.9922 0.5 15.315 0.5ZM6.08094 22.0563C5.99961 22.1188 6.01838 22.2625 6.12473 22.3813C6.22483 22.4813 6.36872 22.525 6.45005 22.4438C6.53138 22.3813 6.51261 22.2375 6.40626 22.1188C6.30616 22.0188 6.16227 21.975 6.08094 22.0563ZM5.40528 21.55C5.36149 21.6313 5.42405 21.7313 5.54917 21.7938C5.64927 21.8563 5.77439 21.8375 5.81818 21.75C5.86197 21.6688 5.79941 21.5688 5.67429 21.5063C5.54917 21.4688 5.44907 21.4875 5.40528 21.55ZM7.43226 23.775C7.33216 23.8563 7.3697 24.0438 7.51359 24.1625C7.65748 24.3063 7.8389 24.325 7.92023 24.225C8.00156 24.1438 7.96403 23.9563 7.83891 23.8375C7.70127 23.6938 7.51359 23.675 7.43226 23.775ZM6.71906 22.8563C6.61896 22.9188 6.61896 23.0813 6.71906 23.225C6.81916 23.3688 6.98807 23.4313 7.0694 23.3688C7.1695 23.2875 7.1695 23.125 7.0694 22.9813C6.98182 22.8375 6.81916 22.775 6.71906 22.8563Z" fill="#E1E1E6"/>
</g>
<defs>
<clipPath id="clip0">
<rect width="31.0303" height="32" fill="white"/>
</clipPath>
</defs>
</svg>
