<svg width="28" height="32" viewBox="0 0 28 32" fill="none" xmlns="http://www.w3.org/2000/svg">
<g clip-path="url(#clip0)">
<path d="M13.925 8.81245C10.0161 8.81245 6.86309 12.0187 6.86309 15.9937C6.86309 19.9687 10.0161 23.175 13.925 23.175C17.834 23.175 20.987 19.9687 20.987 15.9937C20.987 12.0187 17.834 8.81245 13.925 8.81245ZM13.925 20.6625C11.399 20.6625 9.33385 18.5687 9.33385 15.9937C9.33385 13.4187 11.3928 11.325 13.925 11.325C16.4573 11.325 18.5162 13.4187 18.5162 15.9937C18.5162 18.5687 16.4511 20.6625 13.925 20.6625ZM22.9231 8.5187C22.9231 9.44995 22.1855 10.1937 21.2759 10.1937C20.3601 10.1937 19.6287 9.4437 19.6287 8.5187C19.6287 7.5937 20.3662 6.8437 21.2759 6.8437C22.1855 6.8437 22.9231 7.5937 22.9231 8.5187ZM27.6003 10.2187C27.4958 7.97495 26.9918 5.98745 25.3754 4.34995C23.7651 2.71245 21.8106 2.19995 19.6041 2.08745C17.33 1.9562 10.5139 1.9562 8.23983 2.08745C6.0395 2.1937 4.08502 2.7062 2.46857 4.3437C0.852125 5.9812 0.354284 7.9687 0.243653 10.2125C0.114583 12.525 0.114583 19.4562 0.243653 21.7687C0.348138 24.0125 0.852125 26 2.46857 27.6375C4.08502 29.275 6.03335 29.7875 8.23983 29.9C10.5139 30.0312 17.33 30.0312 19.6041 29.9C21.8106 29.7937 23.7651 29.2812 25.3754 27.6375C26.9857 26 27.4897 24.0125 27.6003 21.7687C27.7294 19.4562 27.7294 12.5312 27.6003 10.2187ZM24.6624 24.25C24.183 25.475 23.255 26.4187 22.0442 26.9125C20.231 27.6437 15.9287 27.475 13.925 27.475C11.9214 27.475 7.61292 27.6375 5.80595 26.9125C4.60129 26.425 3.67322 25.4812 3.18767 24.25C2.46857 22.4062 2.63452 18.0312 2.63452 15.9937C2.63452 13.9562 2.47472 9.57495 3.18767 7.73745C3.66708 6.51245 4.59515 5.5687 5.80595 5.07495C7.61907 4.3437 11.9214 4.51245 13.925 4.51245C15.9287 4.51245 20.2372 4.34995 22.0442 5.07495C23.2488 5.56245 24.1769 6.5062 24.6624 7.73745C25.3815 9.5812 25.2156 13.9562 25.2156 15.9937C25.2156 18.0312 25.3815 22.4125 24.6624 24.25Z" fill="#E1E1E6"/>
</g>
<defs>
<clipPath id="clip0">
<rect width="27.5349" height="32" fill="white" transform="translate(0.151489)"/>
</clipPath>
</defs>
</svg>
