<svg width="29" height="32" viewBox="0 0 29 32" fill="none" xmlns="http://www.w3.org/2000/svg">
<g clip-path="url(#clip0)">
<path d="M6.3249 28.0022H0.494776V9.30843H6.3249V28.0022ZM3.4067 6.75843C1.54242 6.75843 0.0302734 5.22093 0.0302734 3.36468C0.0302735 2.47306 0.386003 1.61795 1.01921 0.987478C1.65241 0.357004 2.51122 0.00280762 3.4067 0.00280762C4.30219 0.00280762 5.16099 0.357004 5.7942 0.987478C6.4274 1.61795 6.78313 2.47306 6.78313 3.36468C6.78313 5.22093 5.27036 6.75843 3.4067 6.75843ZM28.1452 28.0022H22.3276V18.9022C22.3276 16.7334 22.2837 13.9522 19.2964 13.9522C16.2653 13.9522 15.8007 16.3084 15.8007 18.7459V28.0022H9.9769V9.30843H15.5685V11.8584H15.6501C16.4285 10.3897 18.3298 8.83968 21.1664 8.83968C27.0668 8.83968 28.1515 12.7084 28.1515 17.7334V28.0022H28.1452Z" fill="#E1E1E6"/>
</g>
<defs>
<clipPath id="clip0">
<rect width="28.1212" height="32" fill="white" transform="translate(0.0302734)"/>
</clipPath>
</defs>
</svg>
